<svg width="574" height="34" viewBox="0 0 574 34" fill="none" xmlns="http://www.w3.org/2000/svg">
  <circle cx="77.8747" cy="17.4449" r="4.12535" transform="rotate(180 77.8747 17.4449)"
    stroke="currentColor" stroke-width="2" />
  <path
    d="M33.1192 28.8098C40.5188 21.623 45.673 19.07 56.7047 17.222C45.673 15.3741 40.5188 12.821 33.1192 5.6343L13.0279 17.222L33.1192 28.8098Z"
    stroke="currentColor" stroke-width="2" />
  <path
    d="M15.7019 23.9073C21.2729 20.119 22.61 19.2276 29.5181 17.222C23.2785 15.6622 20.8273 13.8794 15.2562 10.314L2.99997 17.222L15.7019 23.9073Z"
    stroke="currentColor" stroke-width="2" />
  <path
    d="M71.3318 25.7969C72.4225 33.4067 62.1277 34.866 58.5246 30.0145C56.6551 27.4971 56.281 24.6094 57.3715 21.8831C58.0259 20.2473 59.5571 18.978 60.9797 18.3441C62.4023 17.7101 65.2659 17.2379 66.9554 17.222C65.2659 17.2062 62.4023 16.7415 60.9797 16.1075C59.5571 15.4736 58.0259 14.2043 57.3715 12.5685C56.281 9.84221 56.6551 6.95448 58.5246 4.43709C62.1277 -0.414404 72.4225 1.04488 71.3318 8.65466M71.3318 25.7969C71.3005 25.5791 71.26 25.3562 71.2097 25.1283M71.3318 25.7969C71.3119 25.5711 71.2704 25.3475 71.2097 25.1283M71.3318 25.7969C71.3358 25.8434 71.339 25.89 71.3412 25.9367M71.2097 25.1283C71.198 25.0752 71.1857 25.0218 71.1729 24.9682M71.2097 25.1283C70.4555 22.4043 66.7438 20.3522 64.9195 22.8513C63.6305 24.6172 64.8113 27.2251 67.6066 26.9695M71.3318 8.65466C71.3005 8.8725 71.26 9.09537 71.2097 9.32328M71.3318 8.65466C71.3119 8.88054 71.2704 9.10409 71.2097 9.32328M71.3318 8.65466C71.3358 8.60817 71.339 8.56157 71.3412 8.5149M71.2097 9.32328C71.198 9.37639 71.1857 9.42976 71.1729 9.48341M71.2097 9.32328C70.4555 12.0473 66.7438 14.0994 64.9195 11.6003C63.6305 9.83438 64.8113 7.22651 67.6066 7.48207"
    stroke="currentColor" stroke-width="2" />
  <path d="M66.5097 17.222C68.263 17.222 71.6943 17.222 71.3937 17.222" stroke="currentColor"
    stroke-width="2" />
  <path d="M487 17.2258L87 17.2258" stroke="currentColor" stroke-width="2" stroke-linecap="square" />
  <circle cx="496.125" cy="17.0067" r="4.12535" stroke="currentColor" stroke-width="2" />
  <path
    d="M540.881 5.64182C533.481 12.8286 528.327 15.3816 517.295 17.2296C528.327 19.0775 533.481 21.6306 540.881 28.8173L560.972 17.2296L540.881 5.64182Z"
    stroke="currentColor" stroke-width="2" />
  <path
    d="M558.298 10.5443C552.727 14.3326 551.39 15.224 544.482 17.2296C550.721 18.7894 553.173 20.5722 558.744 24.1376L571 17.2296L558.298 10.5443Z"
    stroke="currentColor" stroke-width="2" />
  <path
    d="M502.668 8.65465C501.578 1.04487 511.872 -0.414411 515.475 4.43709C517.345 6.95448 517.719 9.8422 516.628 12.5685C515.974 14.2043 514.443 15.4736 513.02 16.1075C511.598 16.7415 508.734 17.2137 507.045 17.2296C508.734 17.2454 511.598 17.7101 513.02 18.3441C514.443 18.978 515.974 20.2473 516.628 21.8831C517.719 24.6094 517.345 27.4971 515.475 30.0145C511.872 34.866 501.578 33.4067 502.668 25.7969M502.668 8.65465C502.699 8.87249 502.74 9.09537 502.79 9.32328M502.668 8.65465C502.688 8.88053 502.73 9.10408 502.79 9.32328M502.668 8.65465C502.664 8.60816 502.661 8.56157 502.659 8.5149M502.79 9.32328C502.802 9.37638 502.814 9.42976 502.827 9.48341M502.79 9.32328C503.544 12.0473 507.256 14.0994 509.08 11.6003C510.369 9.83437 509.189 7.22651 506.393 7.48207M502.668 25.7969C502.699 25.5791 502.74 25.3562 502.79 25.1283M502.668 25.7969C502.688 25.5711 502.73 25.3475 502.79 25.1283M502.668 25.7969C502.664 25.8434 502.661 25.89 502.659 25.9367M502.79 25.1283C502.802 25.0752 502.814 25.0218 502.827 24.9682M502.79 25.1283C503.544 22.4043 507.256 20.3522 509.08 22.8513C510.369 24.6172 509.189 27.2251 506.393 26.9695"
    stroke="currentColor" stroke-width="2" />
  <path d="M507.49 17.2296C505.737 17.2296 502.306 17.2296 502.606 17.2296" stroke="currentColor"
    stroke-width="2" />
</svg>
  