<svg width="688" height="795" viewBox="0 0 688 795" fill="none" xmlns="http://www.w3.org/2000/svg">
  <g clip-path="url(#clip0_174_28)">
    <path
      d="M630.72 472.35V562.76C622.19 567.68 611.76 573.7 601.45 579.65C600.3 580.32 599.16 580.98 598.02 581.63C596.31 582.61 594.61 583.6 592.93 584.57C591.53 585.37 590.14 586.17 588.77 586.97C587.41 587.77 586.05 588.55 584.73 589.31C582.6 590.53 580.55 591.73 578.57 592.87V442.24C591.57 449.75 617.72 464.85 630.72 472.35Z"
      stroke="black" stroke-width="10" stroke-miterlimit="10" />
    <path
      d="M630.72 231.51V321.92C620.77 327.66 608.23 334.9 596.31 341.78C595.39 342.31 594.46 342.85 593.55 343.37C591.65 344.47 589.78 345.55 587.95 346.61C586.86 347.23 585.79 347.85 584.73 348.47C582.61 349.69 580.55 350.89 578.57 352.03V201.4C593.69 210.12 608.86 218.9 624 227.63C626.24 228.93 628.48 230.22 630.72 231.51Z"
      stroke="black" stroke-width="10" stroke-miterlimit="10" />
    <path
      d="M631.59 232.02C631.3 231.85 631.01 231.68 630.72 231.52C631 231.67 631.29 231.84 631.59 232.02Z"
      stroke="black" stroke-width="10" stroke-miterlimit="10" />
    <path
      d="M631.59 232.02C631.3 231.85 631.01 231.68 630.72 231.52C631 231.67 631.29 231.84 631.59 232.02Z"
      fill="black" />
    <path
      d="M630.72 472.35V562.76C622.19 567.68 611.76 573.7 601.45 579.65C600.3 580.32 599.16 580.98 598.02 581.63C596.31 582.61 594.61 583.6 592.93 584.57C591.53 585.37 590.14 586.17 588.77 586.97C587.41 587.77 586.05 588.55 584.73 589.31C582.6 590.53 580.55 591.73 578.57 592.87V442.24C591.57 449.75 617.72 464.85 630.72 472.35Z"
      stroke="black" stroke-width="10" stroke-miterlimit="10" />
    <path
      d="M630.72 231.51V321.92C620.77 327.66 608.23 334.9 596.31 341.78C595.39 342.31 594.46 342.85 593.55 343.37C591.65 344.47 589.78 345.55 587.95 346.61C586.86 347.23 585.79 347.85 584.73 348.47C582.61 349.69 580.55 350.89 578.57 352.03V201.4C593.69 210.12 608.86 218.9 624 227.63C626.24 228.93 628.48 230.22 630.72 231.51Z"
      stroke="black" stroke-width="10" stroke-miterlimit="10" />
    <path
      d="M630.72 231.51C631.01 231.68 631.3 231.85 631.59 232.02C631.29 231.84 631 231.67 630.72 231.51Z"
      stroke="black" stroke-width="10" stroke-miterlimit="10" />
    <path
      d="M630.72 231.51C631.01 231.68 631.3 231.85 631.59 232.02C631.29 231.84 631 231.67 630.72 231.51Z"
      fill="black" />
    <path
      d="M154.02 678.82V678.8C140.15 670.8 120.14 659.25 109.29 652.98V379.5L57.14 349.39V622.87C44.15 615.37 18 600.28 5 592.77V201.5C17.99 194 44.15 178.89 57.14 171.39V289.18L109.29 319.29V141.29C122.28 133.79 148.44 118.68 161.43 111.18V662.8C168.69 682.32 178.64 693.04 178.64 693.04L154.02 678.82Z"
      stroke="black" stroke-width="10" stroke-miterlimit="10" />
    <path
      d="M154.02 678.82V678.8C140.15 670.8 120.14 659.25 109.29 652.98V379.5L57.14 349.39V622.87C44.15 615.37 18 600.28 5 592.77V201.5C17.99 194 44.15 178.89 57.14 171.39V289.18L109.29 319.29V141.29C122.28 133.79 148.44 118.68 161.43 111.18V662.8C168.69 682.32 178.64 693.04 178.64 693.04L154.02 678.82Z"
      fill="black" />
    <path
      d="M396.16 35.88C383.16 28.37 357.01 13.27 344.01 5.76999C331.01 13.28 304.86 28.37 291.87 35.87H291.86C268.61 49.3 236.82 67.65 213.57 81.08V713.19C226.57 720.69 252.73 735.79 265.72 743.29V111.18C278.72 103.68 304.87 88.58 317.86 81.08V773.4L344.01 788.49L370 773.49V80.99C383 88.49 409.15 103.59 422.14 111.09V743.39C435.14 735.88 461.29 720.78 474.29 713.28V80.99C451.08 67.57 419.33 49.26 396.16 35.88Z"
      stroke="black" stroke-width="10" stroke-miterlimit="10" />
    <path
      d="M396.16 35.88C383.16 28.37 357.01 13.27 344.01 5.76999C331.01 13.28 304.86 28.37 291.87 35.87H291.86C268.61 49.3 236.82 67.65 213.57 81.08V713.19C226.57 720.69 252.73 735.79 265.72 743.29V111.18C278.72 103.68 304.87 88.58 317.86 81.08V773.4L344.01 788.49L370 773.49V80.99C383 88.49 409.15 103.59 422.14 111.09V743.39C435.14 735.88 461.29 720.78 474.29 713.28V80.99C451.08 67.57 419.33 49.26 396.16 35.88Z"
      fill="black" />
    <path
      d="M682.86 201.41C632.09 172.09 577.21 140.41 526.43 111.09V111.17L508.22 100.65C508.22 100.65 519.12 112.39 526.43 133.68V661.05C519.12 682.34 508.22 694.08 508.22 694.08L532.84 679.86V679.47C581.81 651.19 634.2 620.96 682.86 592.86V442.24C659.66 428.84 627.94 410.54 604.74 397.13C630.81 382.07 658.56 366.05 682.86 352.03V201.41ZM630.72 472.35V562.76C622.19 567.68 611.76 573.7 601.45 579.65C600.3 580.32 599.16 580.98 598.02 581.63C596.31 582.62 594.61 583.6 592.93 584.57C591.53 585.38 590.14 586.18 588.77 586.97C587.41 587.77 586.05 588.55 584.73 589.31C582.6 590.53 580.55 591.73 578.57 592.87V442.24C591.57 449.75 617.72 464.85 630.72 472.35ZM630.72 231.52V321.92C620.77 327.66 608.23 334.9 596.31 341.78C595.39 342.31 594.46 342.85 593.55 343.37C591.65 344.47 589.78 345.55 587.95 346.61C586.86 347.24 585.79 347.86 584.73 348.47C582.61 349.69 580.55 350.89 578.57 352.03V201.4C593.69 210.12 608.86 218.9 624 227.63C626.24 228.93 628.48 230.22 630.72 231.51C631 231.67 631.29 231.84 631.59 232.02C631.3 231.85 631.01 231.68 630.72 231.52Z"
      fill="black" stroke="black" stroke-width="10" stroke-miterlimit="10" />
  </g>
  <defs>
    <clipPath id="clip0_174_28">
      <rect width="687.86" height="794.27" fill="white" />
    </clipPath>
  </defs>
</svg>
  