<svg width="100" height="116" viewBox="0 0 100 116" fill="none" xmlns="http://www.w3.org/2000/svg">
  <g clip-path="url(#clip0_39_77)">
    <path
      d="M95.4839 26.5146L91.7742 24.3759L88.0645 22.2307L84.3548 20.0888L76.9355 15.8049L74.5161 14.4081V14.4146L72.4161 13.2146C72.6677 13.3759 74.5161 14.8178 74.5161 21.192V55.6178L72.2355 57.8984L74.5161 60.1791V94.6178C74.5161 100.992 72.6677 102.434 72.4161 102.595L74.5161 101.392L76.9355 99.992L84.3548 95.7081L88.0645 93.5662L91.7742 91.421L95.4839 89.2823C98.271 87.6726 100 84.6726 100 81.4565V34.3404C100 31.1242 98.271 28.1242 95.4839 26.5146ZM89.3548 80.5275L86.4484 82.2049L85.1613 82.9468V32.8501L86.4484 33.592L89.3548 35.2694V80.5275Z"
      fill="currentColor" />
    <path
      d="M25.4839 94.6113V60.1791L27.7645 57.8984L25.4839 55.6178V21.1855C25.4839 14.8113 27.3323 13.3694 27.5839 13.2081L25.4839 14.4081L23.0645 15.8049L15.6452 20.0887L11.9355 22.2307L8.22581 24.3758L4.51613 26.5146C1.72903 28.1242 0 31.1242 0 34.3404V81.4565C0 84.6726 1.72903 87.6726 4.51613 89.2823L8.22581 91.421L11.9355 93.5662L15.6452 95.7081L23.0645 99.992L25.4839 101.389L27.5839 102.589C27.3323 102.427 25.4839 100.986 25.4839 94.6113ZM14.8387 82.9468L13.5516 82.2049L10.6452 80.5275V35.2694L13.5516 33.592L14.8387 32.85V82.9468Z"
      fill="currentColor" />
    <path
      d="M65.8065 9.21134L62.0968 7.0694L58.3871 4.92746L54.6774 2.78553L50.9677 0.643593L50.1613 0.179077L49.3548 0.643593L45.6452 2.78553L41.9355 4.92746L38.2258 7.0694L34.5161 9.21134L30.8065 11.3533L30 11.8178V12.75V103.127V104.056L30.8065 104.524L34.3548 106.573L37.9032 108.621L40.3226 110.018V107.224V18.0855L43.3871 16.3146L44.8387 15.4759V111.624V112.557L45.6452 113.021L49.3548 115.163L50.1613 115.631L50.9677 115.163L54.6774 113.021L55.4839 112.557V111.624V15.5694L56.7742 16.3146L59.6774 17.992V107.318V110.111L62.0968 108.715L65.8065 106.573L69.5161 104.431L70.3226 103.963V103.034V12.75V11.8178L69.5161 11.3533L65.8065 9.21134Z"
      fill="currentColor" />
  </g>
  <defs>
    <clipPath id="clip0_39_77">
      <rect width="100" height="115.452" fill="white" transform="translate(0 0.179077)" />
    </clipPath>
  </defs>
</svg>
  