<svg width="150" height="150" viewBox="0 0 150 150" fill="none" xmlns="http://www.w3.org/2000/svg">
  <path fill-rule="evenodd" clip-rule="evenodd"
    d="M1.17188 2.34375C1.81908 2.34375 2.34375 1.81908 2.34375 1.17188C2.34375 0.524666 1.81908 0 1.17188 0C0.524666 0 0 0.524666 0 1.17188C0 1.81908 0.524666 2.34375 1.17188 2.34375ZM1.17188 100.781C1.81908 100.781 2.34375 100.257 2.34375 99.6094C2.34375 98.9622 1.81908 98.4375 1.17188 98.4375C0.524666 98.4375 0 98.9622 0 99.6094C0 100.257 0.524666 100.781 1.17188 100.781ZM100.781 1.17188C100.781 1.81908 100.257 2.34375 99.6094 2.34375C98.9622 2.34375 98.4375 1.81908 98.4375 1.17188C98.4375 0.524666 98.9622 0 99.6094 0C100.257 0 100.781 0.524666 100.781 1.17188ZM99.6094 100.781C100.257 100.781 100.781 100.257 100.781 99.6094C100.781 98.9622 100.257 98.4375 99.6094 98.4375C98.9622 98.4375 98.4375 98.9622 98.4375 99.6094C98.4375 100.257 98.9622 100.781 99.6094 100.781ZM2.34375 50.3906C2.34375 51.0378 1.81908 51.5625 1.17188 51.5625C0.524666 51.5625 0 51.0378 0 50.3906C0 49.7434 0.524666 49.2188 1.17188 49.2188C1.81908 49.2188 2.34375 49.7434 2.34375 50.3906ZM1.17188 150C1.81908 150 2.34375 149.475 2.34375 148.828C2.34375 148.181 1.81908 147.656 1.17188 147.656C0.524666 147.656 0 148.181 0 148.828C0 149.475 0.524666 150 1.17188 150ZM100.781 50.3906C100.781 51.0378 100.257 51.5625 99.6094 51.5625C98.9622 51.5625 98.4375 51.0378 98.4375 50.3906C98.4375 49.7434 98.9622 49.2188 99.6094 49.2188C100.257 49.2188 100.781 49.7434 100.781 50.3906ZM99.6094 150C100.257 150 100.781 149.475 100.781 148.828C100.781 148.181 100.257 147.656 99.6094 147.656C98.9622 147.656 98.4375 148.181 98.4375 148.828C98.4375 149.475 98.9622 150 99.6094 150ZM51.5625 1.17188C51.5625 1.81908 51.0378 2.34375 50.3906 2.34375C49.7434 2.34375 49.2188 1.81908 49.2188 1.17188C49.2188 0.524666 49.7434 0 50.3906 0C51.0378 0 51.5625 0.524666 51.5625 1.17188ZM50.3906 100.781C51.0378 100.781 51.5625 100.257 51.5625 99.6094C51.5625 98.9622 51.0378 98.4375 50.3906 98.4375C49.7434 98.4375 49.2188 98.9622 49.2188 99.6094C49.2188 100.257 49.7434 100.781 50.3906 100.781ZM150 1.17188C150 1.81908 149.475 2.34375 148.828 2.34375C148.181 2.34375 147.656 1.81908 147.656 1.17188C147.656 0.524666 148.181 0 148.828 0C149.475 0 150 0.524666 150 1.17188ZM148.828 100.781C149.475 100.781 150 100.257 150 99.6094C150 98.9622 149.475 98.4375 148.828 98.4375C148.181 98.4375 147.656 98.9622 147.656 99.6094C147.656 100.257 148.181 100.781 148.828 100.781ZM51.5625 50.3906C51.5625 51.0378 51.0378 51.5625 50.3906 51.5625C49.7434 51.5625 49.2188 51.0378 49.2188 50.3906C49.2188 49.7434 49.7434 49.2188 50.3906 49.2188C51.0378 49.2188 51.5625 49.7434 51.5625 50.3906ZM50.3906 150C51.0378 150 51.5625 149.475 51.5625 148.828C51.5625 148.181 51.0378 147.656 50.3906 147.656C49.7434 147.656 49.2188 148.181 49.2188 148.828C49.2188 149.475 49.7434 150 50.3906 150ZM150 50.3906C150 51.0378 149.475 51.5625 148.828 51.5625C148.181 51.5625 147.656 51.0378 147.656 50.3906C147.656 49.7434 148.181 49.2188 148.828 49.2188C149.475 49.2188 150 49.7434 150 50.3906ZM148.828 150C149.475 150 150 149.475 150 148.828C150 148.181 149.475 147.656 148.828 147.656C148.181 147.656 147.656 148.181 147.656 148.828C147.656 149.475 148.181 150 148.828 150Z"
    fill="#A26F3F" />
</svg>
  